<svg version="1" xmlns="http://www.w3.org/2000/svg" width="680" height="680" viewBox="0 0 510.000000 510.000000"><path d="M70.4 77.6c-2 3-2.8 16-1.4 21.6 2 7.2 10.1 10.2 15.5 5.5 1.8-1.6 2.8-3.7 3.4-7.7 1-6.1.5-14.3-1-17.1-1.4-2.7-6.2-4.9-10.8-4.9-3.2 0-4.4.5-5.7 2.6zM165.5 127.9c-3.3 1.4-7.3 6-8.6 9.8-1.1 3.4-.8 16.7.5 25.1.3 1.8.8 5.2 1.1 7.5.4 2.3 1.3 7.9 2 12.3.8 4.5 1.7 10.3 2 13 .4 2.7.8 5.6 1 6.4.2.8.7 3.1 1 5 .5 3 3.8 22.4 4.9 28.5 1.4 7.4 3.2 17.2 4.1 21.5.3 1.4 1.1 5.9 1.9 10 .8 4.1 2.7 12.9 4.1 19.5 1.5 6.6 2.8 12.8 3 13.7.2.9 1.9 7.7 3.9 15 6.5 24.8 13.7 42.7 19.1 47.8 2.2 2.1 2.7 2.1 7.4 1 8-1.9 8.6-2.7 8.6-11.2-.1-5.8-1-10.3-4.8-22.3-5.1-16.2-7-25-6.5-29.4l.3-2.9 7 3.4c24.3 11.8 45 19.3 61.9 22.5 26.2 5.1 35.5 1.4 33.6-13.4-.5-3.4-1.3-5.3-2.6-6-1-.6-8-3.2-15.4-5.8-7.4-2.5-16-5.7-19-6.9-3-1.2-8-3-11-4-3-1.1-11.3-4-18.5-6.5-7.1-2.6-17.7-6.3-23.4-8.3-11.7-4.2-12.3-4.9-8.9-11.6 5.4-10.6 15-22.3 35.4-42.9 5.5-5.6 14.1-13.6 24.2-22.6 8.3-7.4 8.9-8.7 7.5-14-1.6-6.1-15.3-7.5-25.6-2.6-14 6.6-35.4 26-52.7 47.8-4.6 5.9-8.7 10.4-9.1 9.9-1.7-1.8-9-34.5-10.5-46.7-.2-1.7-.6-4.8-1-7-.3-2.2-.7-14.6-.9-27.5l-.3-23.5-3.5-2.3c-3.9-2.6-9.2-3.6-12.2-2.3zM493 154.9c-2.1.6-2.5 1.3-2.6 5.1-.2 3.9-.7 10.8-1.9 25.5-.2 2.2-.6 8.5-1 14-.3 5.5-.7 11.6-1 13.5-.2 1.9-.7 7.5-1 12.5-.3 4.9-.8 10.1-1 11.5-.2 1.4-.6 5.1-1 8.2-1.2 11.5-4.8 21.9-8.8 25.6l-2.4 2.3-2.6-3.8c-2.2-3.2-8.7-16.3-19.4-39.3-12.5-26.8-19.8-38.6-29.5-48.2-9.9-9.7-19.6-11.3-25.9-4-6.5 7.4-10.6 18.6-19.3 52.5-5.5 21.3-8.2 29.7-9.5 29.7-2.7 0-8.1-9.4-24.6-42.7-10.4-20.8-19.9-39-21.3-40.5-7.6-8.2-18.3-1.2-16.9 11.1.5 4.4 2.2 8.6 12 29.1 2.4 5.2 6.1 12.9 8 17 3.5 7.7 6.9 14.8 23 48.9 8.3 17.7 9.4 19.5 12.5 20.8 6.8 2.8 18.3.7 22.9-4.2 8.3-8.9 13.1-21.1 22.4-57.4 2.2-8.4 4.3-16 4.8-16.8.6-1.1 2.9 2.5 8.6 13.3 21.7 41.4 37.9 60.2 55.7 65 9.5 2.4 17.5.3 22.2-5.9 5.5-7.1 10.7-22.8 12.2-36.2.3-3.3.9-6.9 1.1-8 .8-2.9 1.1-75.3.4-85.7-.5-6.9-1-9.2-2.6-10.8-2.2-2.1-9.1-3.2-13.5-2.1zM100.4 162.1c-3.9 1.1-6.4 3.9-6.8 7.4-.2 1.5 1 7.1 2.5 12.4 1.6 5.3 3.1 10.5 3.3 11.6.3 1.1 2.3 8.3 4.6 16 3.9 13.5 13.8 51.4 14.6 56.5.3 1.4.7 3.3 1 4.2.3.9.7 2.5.9 3.5.2 1 1.3 6.4 2.4 11.9 1.2 5.6 2.3 12.1 2.6 14.4.3 2.4.7 4.6.9 4.9.2.3.7 3.1 1 6.2.4 3.1.8 6.5 1 7.5.2 1.1.7 5.9 1.1 10.9.4 4.9.9 9.9 1.1 11 .8 4.2.4 24.2-.6 29.5-4.6 24.4-29.6 40.9-62 41.1-11.9 0-22.3-3.4-33.7-11.2-2.3-1.6-4.4-2.9-4.7-2.9-.4 0-2.9-1.6-5.6-3.5-2.7-1.9-5.2-3.5-5.5-3.5-.3 0-1.8-.9-3.3-2-1.5-1.1-5.5-2.6-8.9-3.4L0 383.2v4.2c0 14 8.7 28.7 21.9 37.1 19.5 12.2 54.9 15 81.1 6.4 21.1-7.1 37.5-21.6 46.5-41.2 5.9-12.9 7-19.8 6.9-41.7 0-22-.5-28-4.9-56.1-.3-2.4-2.4-13.2-4.6-23.8-.5-2.3-1.4-6.2-2-8.5-.6-2.2-1.3-5-1.5-6.1-.9-5.1-10.8-37.5-15.4-50.5-2.8-8-5.3-15.2-5.5-16-1.5-5.4-9-23.7-10.1-24.6-1.6-1.3-7.9-1.5-12-.3z"/></svg>